<svg width="465" height="32" viewBox="0 0 465 32" fill="none" xmlns="http://www.w3.org/2000/svg">
<path d="M20 24.65C14.7967 25.1167 10.48 25.35 7.05 25.35C4.76333 25.35 3.08333 24.8133 2.01 23.74C0.936667 22.6667 0.4 20.9867 0.4 18.7V7.5C0.4 5.05 0.948333 3.27667 2.045 2.18C3.165 1.06 4.95 0.499998 7.4 0.499998H20V5.4H8.8C7.4 5.4 6.7 6.1 6.7 7.5V18.7C6.7 19.2367 6.85167 19.6683 7.155 19.995C7.48167 20.2983 7.89 20.45 8.38 20.45C8.87 20.45 9.40667 20.45 9.99 20.45C10.5733 20.4267 11.18 20.4033 11.81 20.38C12.44 20.3567 13.07 20.3333 13.7 20.31C14.3533 20.2867 15.1817 20.24 16.185 20.17C17.2117 20.1 18.4833 20.0183 20 19.925V24.65ZM41.3541 19.75C41.3541 21.5 40.8524 22.8767 39.8491 23.88C38.8691 24.86 37.5041 25.35 35.7541 25.35H27.7041C25.9541 25.35 24.5774 24.86 23.5741 23.88C22.5941 22.8767 22.1041 21.5 22.1041 19.75V11.7C22.1041 9.95 22.5941 8.585 23.5741 7.605C24.5774 6.60167 25.9541 6.1 27.7041 6.1H35.7541C37.5041 6.1 38.8691 6.60167 39.8491 7.605C40.8524 8.585 41.3541 9.95 41.3541 11.7V19.75ZM35.2291 12.225C35.2291 11.2917 34.7624 10.825 33.8291 10.825H29.6291C28.6958 10.825 28.2291 11.2917 28.2291 12.225V19.225C28.2291 20.1583 28.6958 20.625 29.6291 20.625H33.8291C34.7624 20.625 35.2291 20.1583 35.2291 19.225V12.225ZM54.825 11.175C53.5883 11.175 52.1883 11.4083 50.625 11.875V25H44.5V6.45H49.925L50.275 8.2C51.3717 7.47667 52.4917 6.95167 53.635 6.625C54.8017 6.275 55.7817 6.1 56.575 6.1H58.15C59.7367 6.1 61.0083 6.57833 61.965 7.535C62.9217 8.49167 63.4 9.76333 63.4 11.35V25H57.275V12.4C57.275 12.05 57.1583 11.7583 56.925 11.525C56.6917 11.2917 56.4 11.175 56.05 11.175H54.825ZM81.5959 5.225C80.9192 5.17833 80.0209 5.10833 78.9009 5.015C77.7809 4.92167 76.8126 4.875 75.9959 4.875C75.1792 4.875 74.6542 4.99167 74.4209 5.225C74.1876 5.45833 74.0709 5.75 74.0709 6.1V7.85H79.8459V12.575H74.0709V25H67.9459V12.575H65.4959V7.85H67.9459V5.4C67.9459 3.81333 68.4242 2.54167 69.3809 1.585C70.3376 0.628332 71.6092 0.149999 73.1959 0.149999C74.6192 0.149999 76.1242 0.196665 77.7109 0.289999C79.2976 0.383332 80.5926 0.453332 81.5959 0.499998V5.225ZM90.0027 7.15V25H83.8777V11.875H81.2527V7.15H90.0027ZM83.8777 0.149999H90.0027V5.05H83.8777V0.149999ZM106.639 25L106.289 23.25C105.192 23.9733 104.06 24.51 102.894 24.86C101.75 25.1867 100.782 25.35 99.9887 25.35H98.4137C96.827 25.35 95.5553 24.8717 94.5987 23.915C93.642 22.9583 93.1637 21.6867 93.1637 20.1V12.05C93.1637 10.3 93.6537 8.935 94.6337 7.955C95.637 6.95167 97.0137 6.45 98.7637 6.45H105.939V0.499998H112.064V25H106.639ZM101.739 20.275C102.975 20.275 104.375 20.0417 105.939 19.575V11.175H100.689C99.7553 11.175 99.2887 11.6417 99.2887 12.575V19.05C99.2887 19.4 99.4053 19.6917 99.6387 19.925C99.872 20.1583 100.164 20.275 100.514 20.275H101.739ZM122.735 10.475C121.801 10.475 121.335 10.9417 121.335 11.875V13.8H127.285V11.875C127.285 10.9417 126.818 10.475 125.885 10.475H122.735ZM132.71 24.65C128.206 25.1167 124.123 25.35 120.46 25.35C118.873 25.35 117.601 24.8717 116.645 23.915C115.688 22.9583 115.21 21.6867 115.21 20.1V11.7C115.21 9.95 115.7 8.585 116.68 7.605C117.683 6.60167 119.06 6.1 120.81 6.1H127.81C129.56 6.1 130.925 6.60167 131.905 7.605C132.908 8.585 133.41 9.95 133.41 11.7V18.175H121.335V19.575C121.335 19.925 121.451 20.2167 121.685 20.45C121.918 20.6833 122.21 20.8 122.56 20.8C124.87 20.8 128.253 20.625 132.71 20.275V24.65ZM146.871 11.175C145.634 11.175 144.234 11.4083 142.671 11.875V25H136.546V6.45H141.971L142.321 8.2C143.418 7.47667 144.538 6.95167 145.681 6.625C146.848 6.275 147.828 6.1 148.621 6.1H150.196C151.783 6.1 153.054 6.57833 154.011 7.535C154.968 8.49167 155.446 9.76333 155.446 11.35V25H149.321V12.4C149.321 12.05 149.204 11.7583 148.971 11.525C148.738 11.2917 148.446 11.175 148.096 11.175H146.871ZM171.542 25C169.278 25.2333 167.062 25.35 164.892 25.35C163.305 25.35 162.033 24.8717 161.077 23.915C160.12 22.9583 159.642 21.6867 159.642 20.1V11.175H157.542V6.45H159.642L160.342 2.25H165.767V6.45H170.142V11.175H165.767V19.225C165.767 19.575 165.883 19.8667 166.117 20.1C166.35 20.3333 166.642 20.45 166.992 20.45H171.542V25ZM181.023 7.15V25H174.898V11.875H172.273V7.15H181.023ZM174.898 0.149999H181.023V5.05H174.898V0.149999ZM191.884 20.45C193.121 20.45 194.521 20.2167 196.084 19.75V17.65H191.009C190.659 17.65 190.368 17.7667 190.134 18C189.901 18.2333 189.784 18.525 189.784 18.875V19.225C189.784 19.575 189.901 19.8667 190.134 20.1C190.368 20.3333 190.659 20.45 191.009 20.45H191.884ZM185.409 6.8C189.679 6.33333 193.529 6.1 196.959 6.1C198.546 6.1 199.818 6.57833 200.774 7.535C201.731 8.49167 202.209 9.76333 202.209 11.35V25H196.784L196.434 23.25C195.338 23.9733 194.206 24.51 193.039 24.86C191.896 25.1867 190.928 25.35 190.134 25.35H188.909C187.323 25.35 186.051 24.8717 185.094 23.915C184.138 22.9583 183.659 21.6867 183.659 20.1V18.525C183.659 16.9383 184.138 15.6667 185.094 14.71C186.051 13.7533 187.323 13.275 188.909 13.275H196.084V11.875C196.084 11.525 195.968 11.2333 195.734 11C195.501 10.7667 195.209 10.65 194.859 10.65C193.343 10.65 191.663 10.72 189.819 10.86C187.999 11 186.529 11.105 185.409 11.175V6.8ZM214.8 25C213.236 25.2333 211.743 25.35 210.32 25.35C208.92 25.35 207.741 24.8717 206.785 23.915C205.828 22.9583 205.35 21.6867 205.35 20.1V0.499998H211.475V19.225C211.475 19.575 211.591 19.8667 211.825 20.1C212.058 20.3333 212.35 20.45 212.7 20.45H214.8V25ZM242.787 5.225C242.111 5.17833 241.212 5.10833 240.092 5.015C238.972 4.92167 238.004 4.875 237.187 4.875C236.371 4.875 235.846 4.99167 235.612 5.225C235.379 5.45833 235.262 5.75 235.262 6.1V7.85H241.037V12.575H235.262V25H229.137V12.575H226.687V7.85H229.137V5.4C229.137 3.81333 229.616 2.54167 230.572 1.585C231.529 0.628332 232.801 0.149999 234.387 0.149999C235.811 0.149999 237.316 0.196665 238.902 0.289999C240.489 0.383332 241.784 0.453332 242.787 0.499998V5.225ZM249.785 20.45C251.021 20.45 252.421 20.2167 253.985 19.75V17.65H248.91C248.56 17.65 248.268 17.7667 248.035 18C247.801 18.2333 247.685 18.525 247.685 18.875V19.225C247.685 19.575 247.801 19.8667 248.035 20.1C248.268 20.3333 248.56 20.45 248.91 20.45H249.785ZM243.31 6.8C247.58 6.33333 251.43 6.1 254.86 6.1C256.446 6.1 257.718 6.57833 258.675 7.535C259.631 8.49167 260.11 9.76333 260.11 11.35V25H254.685L254.335 23.25C253.238 23.9733 252.106 24.51 250.94 24.86C249.796 25.1867 248.828 25.35 248.035 25.35H246.81C245.223 25.35 243.951 24.8717 242.995 23.915C242.038 22.9583 241.56 21.6867 241.56 20.1V18.525C241.56 16.9383 242.038 15.6667 242.995 14.71C243.951 13.7533 245.223 13.275 246.81 13.275H253.985V11.875C253.985 11.525 253.868 11.2333 253.635 11C253.401 10.7667 253.11 10.65 252.76 10.65C251.243 10.65 249.563 10.72 247.72 10.86C245.9 11 244.43 11.105 243.31 11.175V6.8ZM270.95 7.15V25H264.825V11.875H262.2V7.15H270.95ZM264.825 0.149999H270.95V5.05H264.825V0.149999ZM285.136 11.525C283.666 11.525 282.149 11.875 280.586 12.575V25H274.461V6.45H279.886L280.236 8.725C282.243 6.975 284.343 6.1 286.536 6.1H288.111V11.525H285.136ZM308.228 10.475C307.294 10.475 306.828 10.9417 306.828 11.875V13.8H312.778V11.875C312.778 10.9417 312.311 10.475 311.378 10.475H308.228ZM318.203 24.65C313.699 25.1167 309.616 25.35 305.953 25.35C304.366 25.35 303.094 24.8717 302.138 23.915C301.181 22.9583 300.703 21.6867 300.703 20.1V11.7C300.703 9.95 301.193 8.585 302.173 7.605C303.176 6.60167 304.553 6.1 306.303 6.1H313.303C315.053 6.1 316.418 6.60167 317.398 7.605C318.401 8.585 318.903 9.95 318.903 11.7V18.175H306.828V19.575C306.828 19.925 306.944 20.2167 307.178 20.45C307.411 20.6833 307.703 20.8 308.053 20.8C310.363 20.8 313.746 20.625 318.203 20.275V24.65ZM332.547 6.45H339.372L333.772 15.725L339.547 25H332.722L329.572 19.4L326.422 25H319.597L325.372 15.725L319.772 6.45H326.597L329.572 12.05L332.547 6.45ZM357.049 24.65C352.685 25.1167 348.835 25.35 345.499 25.35C343.912 25.35 342.64 24.8717 341.684 23.915C340.727 22.9583 340.249 21.6867 340.249 20.1V12.05C340.249 10.3 340.739 8.935 341.719 7.955C342.722 6.95167 344.099 6.45 345.849 6.45H357.049V11.175H347.774C346.84 11.175 346.374 11.6417 346.374 12.575V19.4C346.374 19.75 346.49 20.0417 346.724 20.275C346.957 20.5083 347.249 20.625 347.599 20.625C349.699 20.625 352.849 20.45 357.049 20.1V24.65ZM365.967 6.8C368.23 6.33333 370.213 6.1 371.917 6.1H373.492C375.078 6.1 376.35 6.57833 377.307 7.535C378.263 8.49167 378.742 9.76333 378.742 11.35V25H372.617V12.05C372.617 11.7 372.5 11.4083 372.267 11.175C372.033 10.9417 371.742 10.825 371.392 10.825H370.167C369.28 10.825 368.463 10.8717 367.717 10.965C366.993 11.0583 366.41 11.1283 365.967 11.175V25H359.842V0.499998H365.967V6.8ZM389.238 20.45C390.474 20.45 391.874 20.2167 393.438 19.75V17.65H388.363C388.013 17.65 387.721 17.7667 387.488 18C387.254 18.2333 387.138 18.525 387.138 18.875V19.225C387.138 19.575 387.254 19.8667 387.488 20.1C387.721 20.3333 388.013 20.45 388.363 20.45H389.238ZM382.763 6.8C387.033 6.33333 390.883 6.1 394.313 6.1C395.899 6.1 397.171 6.57833 398.128 7.535C399.084 8.49167 399.563 9.76333 399.563 11.35V25H394.138L393.788 23.25C392.691 23.9733 391.559 24.51 390.393 24.86C389.249 25.1867 388.281 25.35 387.488 25.35H386.263C384.676 25.35 383.404 24.8717 382.448 23.915C381.491 22.9583 381.013 21.6867 381.013 20.1V18.525C381.013 16.9383 381.491 15.6667 382.448 14.71C383.404 13.7533 384.676 13.275 386.263 13.275H393.438V11.875C393.438 11.525 393.321 11.2333 393.088 11C392.854 10.7667 392.563 10.65 392.213 10.65C390.696 10.65 389.016 10.72 387.173 10.86C385.353 11 383.883 11.105 382.763 11.175V6.8ZM413.028 11.175C411.791 11.175 410.391 11.4083 408.828 11.875V25H402.703V6.45H408.128L408.478 8.2C409.575 7.47667 410.695 6.95167 411.838 6.625C413.005 6.275 413.985 6.1 414.778 6.1H416.353C417.94 6.1 419.211 6.57833 420.168 7.535C421.125 8.49167 421.603 9.76333 421.603 11.35V25H415.478V12.4C415.478 12.05 415.361 11.7583 415.128 11.525C414.895 11.2917 414.603 11.175 414.253 11.175H413.028ZM436.824 23.6C434.561 24.0667 432.577 24.3 430.874 24.3H429.649C428.062 24.3 426.791 23.8217 425.834 22.865C424.877 21.9083 424.399 20.6367 424.399 19.05V12.05C424.399 10.3 424.889 8.935 425.869 7.955C426.872 6.95167 428.249 6.45 429.999 6.45H442.949V26.05C442.949 27.6367 442.471 28.9083 441.514 29.865C440.557 30.8217 439.286 31.3 437.699 31.3C434.036 31.3 429.952 31.0667 425.449 30.6V26.05C429.906 26.4 433.289 26.575 435.599 26.575C435.949 26.575 436.241 26.4583 436.474 26.225C436.707 25.9917 436.824 25.7 436.824 25.35V23.6ZM432.624 19.575C434.094 19.575 435.494 19.4583 436.824 19.225V11.175H431.924C430.991 11.175 430.524 11.6417 430.524 12.575V18.35C430.524 18.7 430.641 18.9917 430.874 19.225C431.107 19.4583 431.399 19.575 431.749 19.575H432.624ZM453.628 10.475C452.695 10.475 452.228 10.9417 452.228 11.875V13.8H458.178V11.875C458.178 10.9417 457.711 10.475 456.778 10.475H453.628ZM463.603 24.65C459.1 25.1167 455.016 25.35 451.353 25.35C449.766 25.35 448.495 24.8717 447.538 23.915C446.581 22.9583 446.103 21.6867 446.103 20.1V11.7C446.103 9.95 446.593 8.585 447.573 7.605C448.576 6.60167 449.953 6.1 451.703 6.1H458.703C460.453 6.1 461.818 6.60167 462.798 7.605C463.801 8.585 464.303 9.95 464.303 11.7V18.175H452.228V19.575C452.228 19.925 452.345 20.2167 452.578 20.45C452.811 20.6833 453.103 20.8 453.453 20.8C455.763 20.8 459.146 20.625 463.603 20.275V24.65Z" fill="white"/>
</svg>
